<?xml version="1.0" encoding="utf-8"?>
<!-- Generator: Adobe Illustrator 16.0.0, SVG Export Plug-In . SVG Version: 6.00 Build 0)  -->
<!DOCTYPE svg PUBLIC "-//W3C//DTD SVG 1.1//EN" "http://www.w3.org/Graphics/SVG/1.1/DTD/svg11.dtd">
<svg version="1.1" id="Layer_1" xmlns="http://www.w3.org/2000/svg" xmlns:xlink="http://www.w3.org/1999/xlink" x="0px" y="0px"
	 width="72px" height="108px" viewBox="0 0 72 108" style="enable-background:new 0 0 72 108;" xml:space="preserve">
<style type="text/css">
<![CDATA[
	.st0{opacity:0.15;}
	.st1{fill:#B84C26;}
	.st2{fill:#F58045;}
	.st3{opacity:0.2;}
	.st4{fill:#010101;}
	.st5{fill:#79B157;}
]]>
</style>
<path class="st5" d="M63.908,18.468c-4.598-0.552-4.758,10.087-4.758,12.287c0,0.943,0.174,3.942-0.25,7.232
	c-0.469,3.369-2.182,5.698-3.945,7.25C54.062,17.886,39.816,8.155,35.977,7.627C32.016,7.082,26.6,6.538,22.901,18.202
	c-3.17,10.001,0.689,20.516,4.211,29.282c-3.024,0.335-6.143,0.126-7.591-1.704c-3.274-4.134-4.823-14.469-7.233-17.396
	c-2.412-2.927-8.784-2.238-8.267,3.273c0.517,5.512,5.166,14.123,7.923,16.878c2.754,2.756,7.061,5.691,12.055,4.654
	c1.548-0.321,3.267-0.774,4.903-1.248c0.578,1.472,1.104,2.874,1.528,4.189c3.17,9.81-5.35,37.331,5.547,41.418
	c10.134,3.802,17.869-16.91,18.902-43.499c3.48-1.428,6.094-3.136,7.012-3.774c0.047-0.032,0.094-0.066,0.141-0.098
	c0.143-0.102,0.219-0.159,0.221-0.159c1.766-1.307,3.365-3.265,4.512-6.242C69.354,37.052,68.508,19.021,63.908,18.468z"/>
<path class="st4" d="M32.906,25.089c0.357,1.399,0.159,2.649-0.439,2.79c-0.6,0.143-1.376-0.877-1.733-2.274
	c-0.355-1.4-0.158-2.648,0.441-2.791C31.774,22.673,32.551,23.691,32.906,25.089z"/>
<path class="st4" d="M39.424,23.547c0.355,1.398,0.158,2.648-0.441,2.79c-0.598,0.142-1.375-0.876-1.73-2.276
	c-0.358-1.398-0.16-2.647,0.439-2.791C38.291,21.128,39.068,22.147,39.424,23.547z"/>
<g>
	<path class="st2" d="M41.56,36.788c-4.164-5.016-11.554-1.78-11.573-1.771c1.87,2.571,5.26,3.909,8.625,3.113
		C39.713,37.87,40.707,37.405,41.56,36.788z"/>
	<path class="st1" d="M28.792,32.544c0.252,0.911,0.661,1.743,1.194,2.473c0.02-0.01,7.409-3.245,11.573,1.771
		c2.499-1.8,3.791-4.896,3.07-7.993L28.792,32.544z"/>
</g>
<path class="st3" d="M42.211,26.086c0.036,0.144-0.385,0.368-0.941,0.5c-0.559,0.131-1.041,0.121-1.078-0.022
	c-0.035-0.144,0.388-0.367,0.944-0.499C41.694,25.933,42.174,25.942,42.211,26.086z"/>
<path class="st3" d="M31.038,28.732c0.038,0.145-0.385,0.368-0.941,0.501c-0.558,0.132-1.04,0.121-1.075-0.022
	c-0.038-0.144,0.385-0.368,0.941-0.5C30.521,28.579,31.003,28.59,31.038,28.732z"/>
<g class="st0">
	<path d="M34.649,8.627c3.839,0.528,18.086,10.259,18.979,37.61c0.446-0.394,0.89-0.837,1.311-1.335
		C53.939,17.811,39.8,8.153,35.977,7.627c-2.456-0.338-5.471-0.673-8.29,1.9C30.103,8.06,32.576,8.342,34.649,8.627z"/>
	<path d="M10.959,29.383c2.41,2.927,3.96,13.263,7.234,17.396c1.448,1.83,4.566,2.039,7.591,1.704
		c-0.117-0.292-0.235-0.59-0.353-0.885c-2.442,0.078-4.731-0.329-5.911-1.819c-3.274-4.134-4.824-14.469-7.234-17.396
		c-1.73-2.1-5.487-2.325-7.288-0.258C6.937,27.228,9.587,27.718,10.959,29.383z"/>
	<path d="M63.908,18.468c-1.039-0.125-1.851,0.326-2.485,1.118c0.351-0.123,0.735-0.168,1.158-0.118
		c4.599,0.552,5.444,18.583,2.854,25.307c-0.994,2.582-2.329,4.395-3.817,5.684c0.096-0.064,0.197-0.133,0.271-0.185
		c0.048-0.032,0.095-0.066,0.141-0.098c0.143-0.102,0.219-0.159,0.221-0.159c1.767-1.307,3.365-3.265,4.512-6.242
		C69.353,37.052,68.507,19.021,63.908,18.468z"/>
	<path d="M53.552,55.049c-0.766,19.71-5.216,36.179-11.595,41.838c7.035-4.404,12.031-21.552,12.901-42.405
		C54.438,54.674,54.003,54.864,53.552,55.049z"/>
</g>
</svg>
