<?xml version="1.0" encoding="utf-8"?>
<!-- Generator: Adobe Illustrator 16.0.0, SVG Export Plug-In . SVG Version: 6.00 Build 0)  -->
<!DOCTYPE svg PUBLIC "-//W3C//DTD SVG 1.1//EN" "http://www.w3.org/Graphics/SVG/1.1/DTD/svg11.dtd">
<svg version="1.1" id="Layer_1" xmlns="http://www.w3.org/2000/svg" xmlns:xlink="http://www.w3.org/1999/xlink" x="0px" y="0px"
	 width="100.08px" height="100px" viewBox="0 0 100.08 100" style="enable-background:new 0 0 100.08 100;" xml:space="preserve">
<style type="text/css">
<![CDATA[
	.st0{fill:#FFFFFF;}
	.st1{fill:#414042;}
]]>
</style>
<g>
	<path d="M50.399,56.742C44.312,57.827,36.6,62.131,36.6,62.131l-5.901-8.264c6.269-1.117,9.821-10.856,17.025-12.14
		c7.203-1.283,13.9,6.63,20.17,5.514l-2.686,9.794C65.209,57.035,56.486,55.658,50.399,56.742z"/>
	<g>
		<g>
			<path class="st1" d="M47.956,43.025c-6.97,1.242-10.523,10.402-16.427,12.004l4.34,6.078c2.243-1.191,9.25-4.764,14.299-5.663
				c5.049-0.899,12.857,0.034,15.373,0.378l1.975-7.204C61.422,49.153,54.926,41.783,47.956,43.025z"/>
		</g>
	</g>
	<path class="st0" d="M53.645,51.428c-0.32-0.055-0.625,0.158-0.68,0.479c-0.006,0.033-0.008,0.067-0.008,0.101l-2.374-0.414
		l2.084-1.208c0.01,0.031,0.025,0.062,0.041,0.091c0.164,0.281,0.523,0.377,0.805,0.214c0.279-0.163,0.375-0.522,0.213-0.803
		c-0.092-0.16-0.248-0.259-0.416-0.286c0.061-0.159,0.051-0.344-0.041-0.504c-0.164-0.281-0.523-0.376-0.805-0.214
		c-0.279,0.163-0.375,0.522-0.213,0.803c0.018,0.03,0.037,0.057,0.057,0.083l-2.816,1.634l-3.209-0.56
		c0.011-0.031,0.021-0.064,0.026-0.097c0.056-0.32-0.158-0.625-0.478-0.681c-0.32-0.056-0.625,0.158-0.681,0.479
		c-0.031,0.182,0.024,0.358,0.137,0.486c-0.15,0.084-0.262,0.23-0.293,0.413c-0.055,0.319,0.159,0.624,0.478,0.68
		c0.32,0.056,0.625-0.158,0.681-0.478c0.006-0.033,0.008-0.067,0.008-0.1l2.372,0.413l-2.083,1.208
		c-0.012-0.031-0.025-0.062-0.042-0.092c-0.163-0.281-0.522-0.377-0.804-0.214c-0.28,0.163-0.376,0.522-0.214,0.804
		c0.093,0.159,0.249,0.26,0.418,0.285c-0.061,0.16-0.052,0.345,0.04,0.504c0.163,0.281,0.522,0.377,0.804,0.215
		c0.281-0.164,0.376-0.523,0.213-0.804c-0.017-0.03-0.037-0.058-0.059-0.083l2.819-1.633l3.208,0.56
		c-0.012,0.031-0.02,0.063-0.025,0.098c-0.057,0.319,0.156,0.624,0.477,0.681c0.32,0.055,0.625-0.159,0.68-0.479
		c0.033-0.182-0.021-0.358-0.135-0.488c0.148-0.082,0.26-0.23,0.293-0.412C54.178,51.789,53.965,51.484,53.645,51.428z
		 M46.436,49.538c0.095,0.53,0.601,0.882,1.129,0.788c0.018-0.003,0.034-0.007,0.05-0.011c-0.001,0.033,0,0.066,0.006,0.1
		c0.045,0.254,0.289,0.424,0.542,0.378c0.152-0.027,0.271-0.125,0.334-0.253c0.101,0.147,0.282,0.231,0.47,0.198
		c0.168-0.03,0.297-0.147,0.353-0.296c0.105,0.121,0.267,0.186,0.435,0.156c0.188-0.034,0.329-0.175,0.372-0.348
		c0.104,0.098,0.251,0.149,0.403,0.123c0.253-0.045,0.423-0.289,0.378-0.542c-0.006-0.034-0.017-0.065-0.028-0.096
		c0.016-0.002,0.033-0.003,0.05-0.006c0.53-0.095,0.881-0.6,0.788-1.129c-0.027-0.158-0.094-0.3-0.186-0.419
		c0.16-0.459,0.207-0.963,0.115-1.475c-0.285-1.602-1.814-2.668-3.416-2.383c-1.601,0.285-2.668,1.815-2.383,3.417
		c0.091,0.512,0.31,0.968,0.616,1.344C46.419,49.225,46.408,49.381,46.436,49.538z M50.197,46.77
		c0.403-0.072,0.789,0.197,0.862,0.601c0.07,0.404-0.199,0.789-0.601,0.861c-0.404,0.072-0.789-0.197-0.861-0.601
		C49.524,47.228,49.793,46.842,50.197,46.77z M48.985,48.562c0,0,0.557,0.116,0.639,0.58c0.066,0.372-0.355,0.392-0.522,0.075
		c-0.046,0.354-0.45,0.482-0.516,0.11C48.503,48.862,48.985,48.562,48.985,48.562z M47.231,47.298c0.404-0.072,0.79,0.197,0.862,0.6
		c0.072,0.404-0.198,0.789-0.602,0.861c-0.404,0.072-0.789-0.197-0.861-0.601C46.559,47.756,46.827,47.37,47.231,47.298z"/>
</g>
</svg>
