<?xml version="1.0" encoding="utf-8"?>
<!-- Generator: Adobe Illustrator 16.0.0, SVG Export Plug-In . SVG Version: 6.00 Build 0)  -->
<!DOCTYPE svg PUBLIC "-//W3C//DTD SVG 1.1//EN" "http://www.w3.org/Graphics/SVG/1.1/DTD/svg11.dtd">
<svg version="1.1" id="Layer_1" xmlns="http://www.w3.org/2000/svg" xmlns:xlink="http://www.w3.org/1999/xlink" x="0px" y="0px"
	 width="100.08px" height="100px" viewBox="0 0 100.08 100" style="enable-background:new 0 0 100.08 100;" xml:space="preserve">
<style type="text/css">
<![CDATA[
	.st0{fill:#F26522;}
	.st1{fill:#F8951D;}
	.st2{fill:#939598;}
	.st3{fill:#FED600;}
	.st4{fill:#6D6E71;}
	.st5{fill:#00B2BE;}
	.st6{fill:none;stroke:#939598;stroke-miterlimit:10;}
]]>
</style>
<g>
	<g>
		<line class="st6" x1="44.631" y1="45.391" x2="43.185" y2="41.689"/>
		<path class="st2" d="M37.914,43.749c0.588,1.497,6.096-2.384,6.096-2.384S37.329,42.251,37.914,43.749z"/>
		<path class="st2" d="M48.452,39.629c-0.586-1.498-6.096,2.383-6.096,2.383S49.038,41.127,48.452,39.629z"/>
		<circle class="st4" cx="43.184" cy="41.689" r="0.417"/>
	</g>
	<g>
		<path class="st3" d="M34.728,61.066c0.067,0.371,13.898,2.041,26.854-10.091C58.632,45.2,50.94,40.891,43.412,43.973
			C35.881,47.051,33.743,55.607,34.728,61.066z"/>
		<path class="st5" d="M34.843,61.256c-0.757,0.096,14.485,1.734,26.525-3.921c8.835-3.862,5.738-6.343,0.218-6.353
			C54.835,56.91,44.59,60.021,34.843,61.256z"/>
		<path class="st1" d="M43.987,43.747c0,0-4.713,3.506-2.367,16.341c-2.576,0.662-6.783,1.156-6.783,1.156
			S32.03,48.275,43.987,43.747z"/>
		<path class="st0" d="M43.982,43.732c0,0,7.679,1.455,11.514,11.368c1.925-0.752,5.3-3.428,6.081-4.133
			C60.424,48.569,54.5,40.354,43.982,43.732z"/>
	</g>
</g>
</svg>
