<?xml version="1.0" encoding="utf-8"?>
<!-- Generator: Adobe Illustrator 16.0.0, SVG Export Plug-In . SVG Version: 6.00 Build 0)  -->
<!DOCTYPE svg PUBLIC "-//W3C//DTD SVG 1.1//EN" "http://www.w3.org/Graphics/SVG/1.1/DTD/svg11.dtd">
<svg version="1.1" id="Layer_1" xmlns="http://www.w3.org/2000/svg" xmlns:xlink="http://www.w3.org/1999/xlink" x="0px" y="0px"
	 width="100.08px" height="100px" viewBox="0 0 100.08 100" style="enable-background:new 0 0 100.08 100;" xml:space="preserve">
<style type="text/css">
<![CDATA[
	.st0{fill:none;stroke:#B19335;stroke-miterlimit:10;}
]]>
</style>
<g>
	<g>
		<path class="st0" d="M52.939,8.093c0,0,6.787,12.672,6.787,16.705c0,4.031-8.484,25.346-8.484,25.346S68.068,37.039,69.34,33.727
			c1.271-3.312,11.992-13.396,13.998-14.546"/>
		<path class="st0" d="M58.312,19.181c0,0,4.053-7.009,5.938-7.774"/>
		<path class="st0" d="M60.574,15.149c0,0-0.99-2.449-1.838-3.457"/>
		<path class="st0" d="M59.727,24.653c0,0-5.939-2.734-7.494-4.032c-1.556-1.296-7.069-8.497-8.907-9.503"/>
		<path class="st0" d="M74.15,27.678c0,0,10.6-0.145,14.842-3.168"/>
		<path class="st0" d="M71.18,30.703c0,0-2.828-6.193-2.121-8.211c0.705-2.016,1.979-5.902,1.979-7.633"/>
		<path class="st0" d="M82.914,27.104c0,0,4.383,3.167,8.906,1.296"/>
		<path class="st0" d="M65.945,38.047c0,0,14.143,3.6,22.201-0.72"/>
		<path class="st0" d="M62.131,40.639c0,0-0.568-5.904,0.562-7.776c1.133-1.872,1.697-4.751,1.416-7.345"/>
		<path class="st0" d="M77.965,39.632c0,0,0.848-5.474,4.807-7.632"/>
		<path class="st0" d="M71.742,39.057c0,0,4.668,4.176,6.223,4.607s7.775-0.576,8.484,0.288"/>
		<path class="st0" d="M69.906,20.621c0,0,5.09-0.718,8.201-5.184"/>
		<path class="st0" d="M27.913,18.604c4.95,0.866,8.626,6.193,10.323,8.929c1.697,2.737,12.159,23.764,12.159,23.764
			s27.848,5.295,33.086,5.184c6.783-0.144,13.289-1.008,15.27-0.574"/>
		<path class="st0" d="M45.022,40.207c0,0,3.817-7.776,3.392-11.231c-0.423-3.458-2.684-6.77-2.544-7.634"/>
		<path class="st0" d="M39.79,30.415c0,0,0.564-10.225,1.696-11.521c1.133-1.296-1.805-4.729-2.968-6.625"/>
		<path class="st0" d="M40.073,22.062c0,0-4.949-3.457-6.08-6.05c-1.13-2.59-2.685-2.733-2.685-2.733"/>
		<path class="st0" d="M42.194,34.59c0,0-6.222,0.578-8.483,0c-2.263-0.574-9.756-6.19-11.593-6.19
			c-1.838,0-5.231-5.042-5.231-5.042"/>
		<path class="st0" d="M47.284,44.815c0,0-9.332,0.433-11.876,0.145s-8.908-3.168-11.169-2.593
			c-2.263,0.577-13.149-0.433-15.128-3.169"/>
		<path class="st0" d="M28.479,31.998c0,0-3.25,1.44-5.937,1.44c-2.687,0-9.756-2.448-11.453-3.168"/>
		<path class="st0" d="M34.699,34.734c0,0-2.121-4.752-3.109-6.049c-0.991-1.296-3.96-3.744-4.808-5.184"/>
		<path class="st0" d="M34.559,44.815c0,0-6.362-5.617-6.362-8.784"/>
		<path class="st0" d="M42.901,44.96c0,0-8.625,5.76-11.453,5.76c-2.827,0-12.159,0.289-12.865,0.722"/>
		<path class="st0" d="M20.419,33.296c0,0-5.09,2.592-9.755,2.16"/>
		<path class="st0" d="M61.562,53.313c0,0,9.053-3.89,10.889-7.634"/>
		<path class="st0" d="M79.66,56.05c0,0,9.617-10.082,18.381-10.658"/>
		<path class="st0" d="M87.723,49.569c0,0,8.34,1.583,12.299,0"/>
		<path class="st0" d="M73.299,55.329c0,0,10.18,7.778,21.068,9.361"/>
		<path class="st0" d="M67.078,50.432c0,0,0.143-4.608,0-7.775"/>
		<path class="st0" d="M68.918,54.608c0,0,9.613-3.456,11.592-6.337"/>
		<path class="st0" d="M56.049,52.161c0,0,9.049,14.112,17.109,15.121c8.371,1.048,11.029,11.665,12.443,15.409"/>
		<path class="st0" d="M58.451,55.616c0,0-0.986,11.378,0.145,14.979s1.695,17.281,0,20.019"/>
		<path class="st0" d="M73.158,67.282c0,0-0.99,4.32,0.281,8.065c1.273,3.744,2.971,9.073,2.545,11.377"/>
		<path class="st0" d="M63.965,61.81c0,0,11.031-0.145,13.436,0.432c2.402,0.577,12.725,10.082,14.139,9.938"/>
		<path class="st0" d="M58.172,66.705c0,0,7.35,4.897,8.34,6.771c0.988,1.869,1.131,13.248,1.84,15.264"/>
		<path class="st0" d="M50.394,51.297c0,0-2.262,12.242-4.665,15.411c-2.404,3.167-14.705,15.983-15.836,19.871"/>
		<path class="st0" d="M47.992,61.668c0,0,4.948,8.063,3.674,12.238c-1.272,4.176-4.523,14.113-4.947,16.993"/>
		<path class="st0" d="M49.829,55.473c0,0,4.951,2.161,4.951,7.49"/>
		<path class="st0" d="M48.697,48.128c0,0-10.095,12.652-16.966,14.113c-9.474,2.015-20.219,5.041-24.46,10.656"/>
		<path class="st0" d="M30.034,51.009c0,0-5.796,5.762-13.572,7.2c-7.778,1.441-13.15,2.88-13.998,3.887"/>
		<path class="st0" d="M39.933,57.489c0,0-1.556,6.912-4.951,10.08c-3.393,3.168-14.562,9.507-16.116,12.527"/>
		<path class="st0" d="M17.167,42.224c0,0-6.221,4.031-10.32,4.176c-4.101,0.145-6.788,1.729-6.788,1.729"/>
		<path class="st0" d="M39.933,73.764c0,0,2.261,6.479,1.837,8.208c-0.423,1.727-1.979,6.336-2.263,7.633"/>
		<path class="st0" d="M51.385,74.914c0,0,3.676,5.183,2.826,8.641c-0.848,3.455-1.271,8.353-1.271,8.353"/>
		<path class="st0" d="M21.41,65.266c0,0-2.687,6.481-9.048,10.801"/>
		<path class="st0" d="M23.39,55.616c0,0-3.11,3.6-9.757,7.059C6.988,66.13,3.029,67.282,3.029,67.282"/>
		<path class="st0" d="M44.314,68.146c0,0-4.808,0.864-8.201,2.738c-3.393,1.871-11.311,12.528-11.311,12.528"/>
		<path class="st0" d="M26.217,42.8c0,0-0.142,3.168-3.817,4.321c-3.677,1.15-18.523,5.472-20.644,6.767"/>
	</g>
</g>
</svg>
