<?xml version="1.0" encoding="utf-8"?>
<!-- Generator: Adobe Illustrator 16.0.0, SVG Export Plug-In . SVG Version: 6.00 Build 0)  -->
<!DOCTYPE svg PUBLIC "-//W3C//DTD SVG 1.1//EN" "http://www.w3.org/Graphics/SVG/1.1/DTD/svg11.dtd">
<svg version="1.1" id="Layer_1" xmlns="http://www.w3.org/2000/svg" xmlns:xlink="http://www.w3.org/1999/xlink" x="0px" y="0px"
	 width="100.08px" height="100px" viewBox="0 0 100.08 100" style="enable-background:new 0 0 100.08 100;" xml:space="preserve">
<style type="text/css">
<![CDATA[
	.st0{opacity:0.06;fill:#010101;}
	.st1{opacity:0.17;}
	.st2{opacity:0.17;clip-path:url(#SVGID_2_);fill:#010101;}
	.st3{fill:#F26522;}
	.st4{opacity:0.17;fill:#010101;}
	.st5{fill:#00B2BE;}
	.st6{fill:#010101;}
]]>
</style>
<g>
	
		<ellipse transform="matrix(0.9709 -0.2394 0.2394 0.9709 -6.3479 11.2949)" class="st5" cx="43.32" cy="31.778" rx="4.691" ry="4.825"/>
	<path class="st0" d="M44.476,36.463c1.874-0.462,3.194-2.022,3.484-3.859c-1.381-0.348-2.858-0.371-4.427,0.036
		c-1.578,0.369-2.873,1.076-3.935,2.027C40.708,36.157,42.602,36.924,44.476,36.463z"/>
	<path class="st3" d="M43.916,34.189c-12.483,2.919-7.368,26.896-7.368,26.896l13.197-3.254l13.197-3.253
		C62.941,54.578,56.325,30.971,43.916,34.189z"/>
	<path class="st4" d="M61.206,49.598l-12.718,3.136L35.77,55.869c0.323,3.082,0.778,5.216,0.778,5.216l13.197-3.254l13.197-3.253
		C62.941,54.578,62.353,52.477,61.206,49.598z"/>
	<path class="st5" d="M63.895,57.259l-26.942,6.643c-0.66,0.164-1.333-0.243-1.496-0.902l-0.974-3.949
		c-0.163-0.661,0.245-1.333,0.905-1.495l26.941-6.643c0.66-0.163,1.333,0.244,1.494,0.905l0.975,3.948
		C64.96,56.423,64.552,57.098,63.895,57.259z"/>
	<g>
		<g class="st1">
			<path class="st6" d="M43.087,34.912c-0.854,0.077-1.676,0.888-2.232,1.544c-0.85,1.007-1.426,2.363-1.11,3.643
				c0.103,0.411,0.373,0.856,0.794,0.874c0.368,0.016,0.79-0.219,1.017-0.509c0.315-0.401,1.037-1.638,0.978-4.527
				c-0.004-0.214,0.004-0.435,0.084-0.634C42.698,35.105,42.874,34.932,43.087,34.912"/>
		</g>
		<g class="st1">
			<path class="st6" d="M44.984,34.444c0.792-0.329,1.897,0.007,2.693,0.329c1.222,0.496,2.362,1.43,2.678,2.709
				c0.102,0.411,0.067,0.932-0.297,1.143c-0.318,0.185-0.801,0.173-1.137,0.021c-0.466-0.208-1.679-0.968-2.971-3.553
				c-0.096-0.193-0.205-0.384-0.369-0.522S45.182,34.362,44.984,34.444"/>
		</g>
	</g>
	<g>
		<defs>
			<path id="SVGID_1_" d="M63.895,57.259l-26.942,6.643c-0.66,0.164-1.333-0.243-1.496-0.902l-0.974-3.949
				c-0.163-0.661,0.245-1.333,0.905-1.495l26.941-6.643c0.66-0.163,1.333,0.244,1.494,0.905l0.975,3.948
				C64.96,56.423,64.552,57.098,63.895,57.259z"/>
		</defs>
		<clipPath id="SVGID_2_">
			<use xlink:href="#SVGID_1_"  style="overflow:visible;"/>
		</clipPath>
		
			<rect x="37.944" y="55.523" transform="matrix(0.9708 -0.2398 0.2398 0.9708 -13.4718 10.9451)" class="st2" width="0.59" height="10.613"/>
		
			<rect x="40.043" y="55.007" transform="matrix(0.971 -0.239 0.239 0.971 -13.2467 11.3895)" class="st2" width="0.588" height="10.611"/>
		
			<rect x="42.142" y="54.488" transform="matrix(0.9706 -0.2406 0.2406 0.9706 -13.1391 11.9658)" class="st2" width="0.589" height="10.613"/>
		
			<rect x="44.241" y="53.972" transform="matrix(0.9712 -0.2384 0.2384 0.9712 -12.8497 12.3289)" class="st2" width="0.59" height="10.611"/>
		
			<rect x="46.339" y="53.454" transform="matrix(0.9712 -0.2384 0.2384 0.9712 -12.6659 12.8143)" class="st2" width="0.59" height="10.612"/>
		
			<rect x="48.437" y="52.936" transform="matrix(0.9704 -0.2416 0.2416 0.9704 -12.6259 13.4967)" class="st2" width="0.59" height="10.613"/>
		
			<rect x="50.537" y="52.419" transform="matrix(0.971 -0.239 0.239 0.971 -12.324 13.8228)" class="st2" width="0.588" height="10.613"/>
		
			<rect x="52.634" y="51.9" transform="matrix(0.9705 -0.241 0.241 0.9705 -12.226 14.4411)" class="st2" width="0.592" height="10.614"/>
		
			<rect x="54.733" y="51.385" transform="matrix(0.9712 -0.2383 0.2383 0.9712 -11.9219 14.743)" class="st2" width="0.59" height="10.612"/>
		
			<rect x="56.832" y="50.866" transform="matrix(0.9708 -0.2398 0.2398 0.9708 -11.8037 15.3389)" class="st2" width="0.59" height="10.613"/>
		
			<rect x="58.932" y="50.349" transform="matrix(0.971 -0.239 0.239 0.971 -11.5859 15.7694)" class="st2" width="0.588" height="10.612"/>
		
			<rect x="61.031" y="49.832" transform="matrix(0.971 -0.239 0.239 0.971 -11.4015 16.2561)" class="st2" width="0.588" height="10.613"/>
	</g>
	<path class="st4" d="M63.612,56.115L36.67,62.758c-0.66,0.162-1.333-0.244-1.497-0.904l0.283,1.146
		c0.163,0.659,0.836,1.066,1.496,0.902l26.942-6.643c0.657-0.161,1.065-0.836,0.902-1.494l-0.282-1.146
		C64.678,55.279,64.271,55.952,63.612,56.115z"/>
</g>
</svg>
